<?xml version="1.0" encoding="utf-8"?>
<!-- Generator: Adobe Illustrator 25.4.1, SVG Export Plug-In . SVG Version: 6.00 Build 0)  -->
<svg version="1.1" id="Capa_1" xmlns="http://www.w3.org/2000/svg" xmlns:xlink="http://www.w3.org/1999/xlink" x="0px" y="0px"
	 viewBox="0 0 96.24 123.35" style="enable-background:new 0 0 96.24 123.35;" xml:space="preserve">
<style type="text/css">
	.st0{fill:#FE6A00;}
</style>
<g>
	<path class="st0" d="M95.86,1.7c0.49,0.47,0.61,1.01,0.52,1.7c-0.94,7.44-1.84,14.89-2.76,22.33c-1.08,8.72-2.18,17.43-3.25,26.14
		c-1.05,8.52-2.09,17.04-3.14,25.56c-0.11,0.88-0.61,1.47-1.47,1.7c-3.09,0.81-6.18,1.6-9.26,2.4c-1,0.26-1.03-0.36-1.03-1.08
		c0-5.6,0-11.19-0.01-16.79c-0.02-17.11-0.03-34.21-0.05-51.32c0-2.34,0.38-2.85,2.59-3.7c5.43-2.09,10.86-4.2,16.28-6.33
		c0.39-0.15,0.88-0.18,1.11-0.63C95.54,1.7,95.7,1.7,95.86,1.7z"/>
	<path class="st0" d="M68.74,52.17c0,11.63,0.04,23.26-0.01,34.9c-0.04,9.61-3.89,17.39-11.51,23.28c-3.18,2.46-6.9,3.82-10.64,5.11
		c-6.34,2.18-12.76,4.15-19.37,5.29c-7.25,1.25-13.66-0.91-19.17-5.7c-4.91-4.26-7.21-9.71-7.2-16.2
		C0.86,85.37,0.44,71.9,0.73,58.43c0.08-3.91-0.21-7.84,0.34-11.73c0.73-5.24,3.5-9.25,7.66-12.39c3.72-2.8,7.95-4.52,12.4-5.76
		c1.98-0.55,3.24,0.69,3.1,2.42c-0.13,1.67-0.03,3.36-0.03,5.03c0.03,18.07,0.05,36.13,0.08,54.2c0,1.76,0.04,3.52,0.63,5.21
		c0.88,2.5,2.26,3.15,4.71,2.2c4.5-1.76,9.01-3.51,13.5-5.3c3.27-1.31,4.23-4.08,4.25-7.25c0.06-8.59,0.02-17.19,0.02-25.78
		c0-9.15,0.08-18.31-0.05-27.46c-0.06-4.4,1.58-7.92,4.68-10.85c4-3.78,8.83-6.13,13.99-7.88c1.25-0.42,2.45,0.37,2.68,1.66
		c0.08,0.43,0.05,0.88,0.05,1.32c0,12.03,0,24.06,0,36.1C68.73,52.17,68.73,52.17,68.74,52.17z"/>
	<path class="st0" d="M80.83,101.31c-4.81-0.01-8.72-3.89-8.72-8.65c0-4.73,3.97-8.67,8.72-8.68c4.75-0.01,8.73,3.95,8.72,8.68
		C89.55,97.45,85.65,101.32,80.83,101.31z"/>
</g>
</svg>
